# Blender 3.6.11
# www.blender.org
mtllib 8SidedTest.mtl
o Plane
v 1.484502 2.161306 1.967483
v 1.484502 -2.161306 1.967483
v 1.484502 2.161306 -2.355129
v 1.484502 -2.161306 -2.355129
vn 1.0000 -0.0000 -0.0000
vt 0.000000 0.000000
vt 1.000000 0.000000
vt 1.000000 1.000000
vt 0.000000 1.000000
s 0
f 1/1/1 2/2/1 4/3/1 3/4/1
o Plane.001
v -2.161306 1.933522 2.161306
v 2.161306 1.933522 2.161306
v -2.161306 1.933522 -2.161306
v 2.161306 1.933522 -2.161306
vn -0.0000 1.0000 -0.0000
vt 0.000000 0.000000
vt 1.000000 0.000000
vt 1.000000 1.000000
vt 0.000000 1.000000
s 0
f 5/5/2 6/6/2 8/7/2 7/8/2
o Plane.002
v -2.042504 0.000000 2.161306
v 2.280108 0.000000 2.161306
v -2.042504 0.000000 -2.161306
v 2.280108 0.000000 -2.161306
vn -0.0000 1.0000 -0.0000
vt 0.000000 0.000000
vt 1.000000 0.000000
vt 1.000000 1.000000
vt 0.000000 1.000000
s 0
f 9/9/3 10/10/3 12/11/3 11/12/3
o Plane.003
v -0.527309 2.161306 -2.507352
v -0.527309 -2.161306 -2.507352
v 2.529239 2.161306 0.549196
v 2.529239 -2.161306 0.549196
vn -0.7071 -0.0000 0.7071
vt 0.000000 0.000000
vt 1.000000 0.000000
vt 1.000000 1.000000
vt 0.000000 1.000000
s 0
f 13/13/4 14/14/4 16/15/4 15/16/4
o Plane.004
v -2.060276 2.161306 -1.681854
v -2.060276 -2.161306 -1.681854
v 2.262336 2.161306 -1.681854
v 2.262336 -2.161306 -1.681854
vn -0.0000 -0.0000 1.0000
vt 0.000000 0.000000
vt 1.000000 0.000000
vt 1.000000 1.000000
vt 0.000000 1.000000
s 0
f 17/17/5 18/18/5 20/19/5 19/20/5
o Plane.005
v -0.134189 2.161306 2.829237
v -0.134189 -2.161306 2.829237
v 2.922359 2.161306 -0.227311
v 2.922359 -2.161306 -0.227311
vn 0.7071 -0.0000 0.7071
vt 0.000000 0.000000
vt 1.000000 0.000000
vt 1.000000 1.000000
vt 0.000000 1.000000
s 0
f 21/21/6 22/22/6 24/23/6 23/24/6
o Plane.006
v -1.537893 2.161306 1.967483
v -1.537893 -2.161306 1.967483
v -1.537893 2.161306 -2.355129
v -1.537893 -2.161306 -2.355129
vn 1.0000 -0.0000 -0.0000
vt 0.000000 0.000000
vt 1.000000 0.000000
vt 1.000000 1.000000
vt 0.000000 1.000000
s 0
f 25/25/7 26/26/7 28/27/7 27/28/7
o Plane.007
v -2.060276 2.161306 1.943380
v -2.060276 -2.161306 1.943380
v 2.262336 2.161306 1.943381
v 2.262336 -2.161306 1.943381
vn -0.0000 -0.0000 1.0000
vt 0.000000 0.000000
vt 1.000000 0.000000
vt 1.000000 1.000000
vt 0.000000 1.000000
s 0
f 29/29/8 30/30/8 32/31/8 31/32/8
o Plane.008
v -2.824414 2.161306 0.214879
v -2.824414 -2.161306 0.214879
v 0.232134 2.161306 -2.841669
v 0.232134 -2.161306 -2.841669
vn 0.7071 -0.0000 0.7071
vt 0.000000 0.000000
vt 1.000000 0.000000
vt 1.000000 1.000000
vt 0.000000 1.000000
s 0
f 33/33/9 34/34/9 36/35/9 35/36/9
o Plane.009
v -2.774591 2.161306 -0.117504
v -2.774591 -2.161306 -0.117504
v 0.281957 2.161306 2.939044
v 0.281957 -2.161306 2.939044
vn -0.7071 -0.0000 0.7071
vt 0.000000 0.000000
vt 1.000000 0.000000
vt 1.000000 1.000000
vt 0.000000 1.000000
s 0
f 37/37/10 38/38/10 40/39/10 39/40/10
