# Blender 3.6.11
# www.blender.org
mtllib ParrallelPlaneTest.mtl
o Cube.003
v 1.115517 0.907732 1.737019
v -0.912954 -1.063278 1.757623
v -0.884271 0.936346 1.731482
vn 0.0026 -0.0131 -0.9999
s 0
f 3//1 1//1 2//1
o Cube.006
v -1.767033 0.566964 -0.318232
v -3.720477 0.537970 1.727059
v -1.721840 0.481587 1.679433
vn 0.0292 0.9987 0.0420
s 0
f 6//2 4//2 5//2
o Cube.001
v 3.354091 0.566964 -0.318232
v 1.400647 0.537970 1.727059
v 3.399285 0.481587 1.679433
vn 0.0292 0.9987 0.0420
s 0
f 9//3 7//3 8//3
o Cube.002
v 0.996820 1.118507 -0.318232
v -0.956623 1.089513 1.727059
v 1.042014 1.033130 1.679433
vn 0.0292 0.9987 0.0420
s 0
f 12//4 10//4 11//4
o Cube.004
v 1.115517 0.805605 -0.115206
v -0.912955 -1.159347 -0.270996
v -0.884271 0.834599 -0.118162
vn 0.0026 0.0764 -0.9971
s 0
f 15//5 13//5 14//5
o Cube.005
v 1.281590 1.008601 0.545708
v 1.272428 0.397525 1.134192
v 1.278154 1.019732 1.128133
vn -0.9999 0.0091 -0.0061
s 0
f 18//6 16//6 17//6
o Cube.007
v -1.019568 0.800614 0.545708
v -1.238433 0.230005 1.134192
v -1.018965 0.812248 1.128133
vn -0.9357 0.3527 -0.0061
s 0
f 21//7 19//7 20//7
