# Blender 4.0.2
# www.blender.org
mtllib Tower.mtl
o Cylinder
v -0.160500 7.736037 -1.736023
v 0.812320 8.022796 -1.824499
v 1.397512 7.736037 -1.042351
v 1.601459 7.736037 -0.689105
v 1.986223 8.022796 0.208760
v 1.423190 7.736037 1.007008
v 1.150256 7.736037 1.310133
v 0.415234 8.022796 1.953521
v -0.517932 7.736037 1.664717
v -0.890562 7.736037 1.498811
v -1.729594 8.022796 0.998582
v -1.743290 7.736037 0.021843
v -1.700653 7.736037 -0.383816
v -1.484182 8.022796 -1.336363
v -0.559480 7.736037 -1.651217
v 0.946566 8.475851 -2.126020
v 0.000000 8.475851 -2.327219
v 1.729461 8.475851 -1.557214
v 2.213317 8.475851 -0.719150
v 2.314471 8.475851 0.243261
v 2.015431 8.475851 1.163610
v 1.367905 8.475851 1.882760
v 0.483856 8.475851 2.276364
v -0.483856 8.475851 2.276364
v -1.367905 8.475851 1.882760
v -2.015431 8.475851 1.163610
v -2.314471 8.475851 0.243261
v -2.213317 8.475851 -0.719150
v -1.729461 8.475851 -1.557214
v -0.946565 8.475851 -2.126020
v 0.946566 9.155433 -2.126020
v 0.000000 9.155433 -2.327219
v 1.729461 9.155433 -1.557214
v 2.213317 9.155433 -0.719150
v 2.314471 9.155433 0.243261
v 2.015431 9.155433 1.163610
v 1.367905 9.155433 1.882760
v 0.483856 9.155433 2.276364
v -0.483856 9.155433 2.276364
v -1.367905 9.155433 1.882760
v -2.015431 9.155433 1.163610
v -2.314471 9.155433 0.243261
v -2.213317 9.155433 -0.719150
v -1.729461 9.155433 -1.557214
v -0.946565 9.155433 -2.126020
v 1.021752 9.517877 -2.294891
v 0.000000 9.517877 -2.512072
v 1.866833 9.517877 -1.680904
v 2.389122 9.517877 -0.776273
v 2.498310 9.517877 0.262583
v 2.175518 9.517877 1.256036
v 1.476559 9.517877 2.032308
v 0.522289 9.517877 2.457177
v -0.522289 9.517877 2.457177
v -1.476559 9.517877 2.032308
v -2.175518 9.517877 1.256036
v -2.498310 9.517877 0.262583
v -2.389122 9.517877 -0.776273
v -1.866833 9.517877 -1.680904
v -1.021751 9.517877 -2.294891
v 0.778799 10.333376 -1.749211
v -0.000000 10.333376 -1.914751
v 1.422937 10.333376 -1.281218
v 1.821036 10.333376 -0.591690
v 1.904261 10.333376 0.200146
v 1.658222 10.333376 0.957375
v 1.125462 10.333376 1.549066
v 0.398099 10.333376 1.872909
v -0.398099 10.333376 1.872909
v -1.125463 10.333376 1.549066
v -1.658223 10.333376 0.957375
v -1.904262 10.333376 0.200146
v -1.821036 10.333376 -0.591690
v -1.422937 10.333376 -1.281218
v -0.778799 10.333376 -1.749212
v 0.000000 5.744689 -2.093068
v 0.851328 5.744689 -1.912113
v 1.555453 5.744689 -1.400536
v 1.990626 5.744689 -0.646794
v 2.081602 5.744689 0.218785
v 1.812650 5.744689 1.046534
v 1.230274 5.744689 1.693327
v 0.435173 5.744689 2.047329
v -0.435173 5.744689 2.047329
v -1.230274 5.744689 1.693327
v -1.812650 5.744689 1.046534
v -2.081602 5.744689 0.218785
v -1.990626 5.744689 -0.646794
v -1.555453 5.744689 -1.400536
v -0.851327 5.744689 -1.912113
v 0.851328 5.431054 -1.912113
v 1.555453 5.431054 -1.400536
v 1.990626 5.431054 -0.646794
v 2.081602 5.431054 0.218785
v 1.812650 5.431054 1.046534
v 1.230274 5.431054 1.693327
v 0.435173 5.431054 2.047329
v -0.435173 5.431054 2.047329
v -1.230274 5.431054 1.693327
v -1.812650 5.431054 1.046534
v -2.081602 5.431054 0.218785
v -1.990626 5.431054 -0.646794
v -1.555453 5.431054 -1.400536
v -0.851327 5.431054 -1.912113
v 0.000000 5.431054 -2.093068
v 0.812320 5.312262 -1.824499
v 1.484182 5.312262 -1.336363
v 1.899415 5.312262 -0.617157
v 1.986223 5.312262 0.208760
v 1.729594 5.312262 0.998582
v 1.173903 5.312262 1.615739
v 0.415234 5.312262 1.953521
v -0.415234 5.312262 1.953521
v -1.173903 5.312262 1.615739
v -1.729594 5.312262 0.998582
v -1.986223 5.312262 0.208760
v -1.899415 5.312262 -0.617157
v -1.484182 5.312262 -1.336363
v -0.812320 5.312262 -1.824499
v 0.000000 5.312262 -1.997163
v -0.160500 6.151223 -1.736023
v 0.812320 5.864465 -1.824499
v 1.397512 6.151223 -1.042351
v 1.601459 6.151223 -0.689105
v 1.986223 5.864465 0.208760
v 1.423190 6.151223 1.007008
v 1.150256 6.151223 1.310133
v 0.415234 5.864465 1.953521
v -0.517932 6.151223 1.664717
v -0.890562 6.151223 1.498811
v -1.729594 5.864465 0.998582
v -1.743290 6.151223 0.021843
v -1.700653 6.151223 -0.383816
v -1.484182 5.864465 -1.336363
v -0.559480 6.151223 -1.651217
v 0.000000 5.864465 -1.997163
v 0.000000 8.022796 -1.997163
v 1.899415 8.022796 -0.617157
v 1.484182 8.022796 -1.336363
v 1.173903 8.022796 1.615739
v 1.729594 8.022796 0.998582
v -1.173903 8.022796 1.615739
v -0.415234 8.022796 1.953521
v -1.899415 8.022796 -0.617157
v -1.986223 8.022796 0.208760
v -0.812320 8.022796 -1.824499
v 1.484182 5.864465 -1.336363
v 1.899415 5.864465 -0.617157
v 1.729594 5.864465 0.998582
v 1.173903 5.864465 1.615739
v -0.415234 5.864465 1.953521
v -1.173903 5.864465 1.615739
v -1.986223 5.864465 0.208760
v -1.899415 5.864465 -0.617157
v -0.812320 5.864465 -1.824499
v 1.021752 10.333376 -2.294891
v -0.000000 10.333376 -2.512072
v 1.866833 10.333376 -1.680904
v 2.389122 10.333376 -0.776273
v 2.498310 10.333376 0.262583
v 2.175517 10.333376 1.256036
v 1.476558 10.333376 2.032308
v 0.522289 10.333376 2.457177
v -0.522289 10.333376 2.457177
v -1.476559 10.333376 2.032308
v -2.175518 10.333376 1.256036
v -2.498310 10.333376 0.262583
v -2.389122 10.333376 -0.776273
v -1.866833 10.333376 -1.680904
v -1.021752 10.333376 -2.294891
v 0.778799 9.533712 -1.749211
v -0.000000 9.533712 -1.914751
v 1.422937 9.533712 -1.281218
v 1.821036 9.533712 -0.591690
v 1.904261 9.533712 0.200146
v 1.658222 9.533712 0.957375
v 1.125462 9.533712 1.549066
v 0.398099 9.533712 1.872909
v -0.398099 9.533712 1.872909
v -1.125463 9.533712 1.549066
v -1.658223 9.533712 0.957375
v -1.904262 9.533712 0.200146
v -1.821036 9.533712 -0.591690
v -1.422937 9.533712 -1.281218
v -0.778799 9.533712 -1.749212
v 0.812320 -0.965621 -1.824499
v 1.484182 -0.965621 -1.336363
v 1.899415 -0.965621 -0.617157
v 1.986223 -0.965621 0.208760
v 1.729594 -0.965621 0.998582
v 0.415234 -0.965621 1.953521
v -1.173903 -0.965621 1.615739
v -1.729594 -0.965621 0.998582
v -1.986223 -0.965621 0.208760
v -1.899415 -0.965621 -0.617157
v -1.484182 -0.965621 -1.336363
v -0.812320 -0.965621 -1.824499
v 0.000000 -0.965621 -1.997163
v 1.173903 -0.965621 1.615739
v -0.415234 -0.965621 1.953521
vn -0.0893 0.4508 -0.8882
vn -0.0892 -0.4282 -0.8993
vn 0.3850 -0.3224 -0.8648
vn 0.3816 0.3458 -0.8572
vn 0.7280 -0.4282 -0.5355
vn 0.7198 0.4508 -0.5279
vn 0.8171 0.4508 -0.3594
vn 0.8277 -0.4282 -0.3627
vn 0.9414 -0.3224 0.0989
vn 0.9332 0.3458 0.0981
vn 0.7342 -0.4282 0.5269
vn 0.7245 0.4508 0.5215
vn 0.5943 0.4508 0.6660
vn 0.6007 -0.4282 0.6751
vn 0.1968 -0.3224 0.9259
vn 0.1951 0.3458 0.9178
vn -0.2742 -0.4282 0.8611
vn -0.2721 0.4508 0.8502
vn -0.4498 0.4508 0.7711
vn -0.4564 -0.4282 0.7800
vn -0.8198 -0.3224 0.4733
vn -0.8126 0.3458 0.4692
vn -0.9037 -0.4282 0.0053
vn -0.8926 0.4508 0.0040
vn -0.8723 0.4508 -0.1895
vn -0.8828 -0.4282 -0.1931
vn -0.7035 -0.3224 -0.6334
vn -0.6973 0.3458 -0.6279
vn 0.9493 -0.2982 0.0998
vn 0.8266 -0.2982 0.4773
vn -0.2843 -0.4282 -0.8578
vn -0.2796 0.4508 -0.8477
vn 0.1985 -0.2982 0.9336
vn 0.5610 -0.2982 0.7722
vn 0.5705 -0.2410 0.7852
vn 0.2018 -0.2410 0.9493
vn -0.5610 -0.2982 0.7722
vn -0.8266 -0.2982 0.4773
vn -0.3882 -0.2982 -0.8720
vn -0.0000 -0.2982 -0.9545
vn 0.7093 -0.2982 -0.6387
vn 0.9078 -0.2982 -0.2950
vn -0.1985 -0.2982 0.9336
vn 0.3882 -0.2982 -0.8720
vn -0.9078 -0.2982 -0.2950
vn -0.7093 -0.2982 -0.6387
vn -0.9493 -0.2982 0.0998
vn -0.3948 -0.2410 -0.8866
vn -0.7212 -0.2410 -0.6494
vn -0.7238 -0.2269 -0.6517
vn -0.1318 0.0099 -0.9912
vn -0.0000 -0.2410 -0.9705
vn -0.2018 -0.2410 0.9493
vn 0.3948 -0.2410 -0.8866
vn -0.5705 -0.2410 0.7852
vn 0.7212 -0.2410 -0.6494
vn -0.8405 -0.2410 0.4853
vn 0.9230 -0.2410 -0.2999
vn -0.9652 -0.2410 0.1014
vn 0.9652 -0.2410 0.1014
vn -0.9230 -0.2410 -0.2999
vn 0.8405 -0.2410 0.4853
vn 0.7925 0.0099 0.6098
vn 0.2025 -0.2269 0.9526
vn -0.2827 0.0099 -0.9591
vn -0.4760 0.0099 0.8794
vn 0.3961 -0.2269 -0.8897
vn -0.3350 0.0099 0.9422
vn 0.9020 0.0099 -0.4317
vn -0.8434 -0.2269 0.4870
vn 0.8248 0.0099 -0.5653
vn -0.9834 0.0099 -0.1809
vn 0.9686 -0.2269 0.1018
vn -0.9996 0.0099 -0.0275
vn 0.6893 0.0099 0.7244
vn -0.6482 0.6632 0.3742
vn -0.6908 0.5671 -0.4486
vn 0.4486 0.5671 -0.6908
vn 0.7444 0.6632 0.0782
vn 0.2952 0.5671 0.7689
vn -0.7689 0.5671 0.2952
vn -0.5562 0.6632 -0.5008
vn 0.2132 0.5671 -0.7956
vn 0.7956 0.5671 0.2132
vn 0.1556 0.6632 0.7321
vn -0.6401 0.5671 0.5183
vn -0.5183 0.5671 -0.6401
vn 0.3044 0.6632 -0.6838
vn 0.8225 0.5671 -0.0431
vn 0.0431 0.5671 0.8225
vn -0.3853 -0.3200 -0.8655
vn -0.3856 0.3183 -0.8660
vn -0.0000 0.3183 -0.9480
vn -0.0000 -0.3200 -0.9474
vn -0.7041 -0.3200 -0.6339
vn -0.7045 0.3183 -0.6343
vn -0.9010 -0.3200 -0.2928
vn -0.9016 0.3183 -0.2929
vn -0.9422 -0.3200 0.0990
vn -0.9428 0.3183 0.0991
vn -0.8205 -0.3200 0.4737
vn -0.8210 0.3183 0.4740
vn -0.5569 -0.3200 0.7665
vn -0.5572 0.3183 0.7670
vn -0.1970 -0.3200 0.9267
vn -0.1971 0.3183 0.9273
vn 0.1970 -0.3200 0.9267
vn 0.1971 0.3183 0.9273
vn 0.5569 -0.3200 0.7665
vn 0.5572 0.3183 0.7670
vn 0.8205 -0.3200 0.4737
vn 0.8210 0.3183 0.4740
vn 0.9422 -0.3200 0.0990
vn 0.9428 0.3183 0.0991
vn 0.9010 -0.3200 -0.2928
vn 0.9016 0.3183 -0.2929
vn 0.7041 -0.3200 -0.6339
vn 0.7045 0.3183 -0.6343
vn 0.3853 -0.3200 -0.8655
vn 0.3856 0.3183 -0.8660
vn -0.0000 -0.3478 -0.9376
vn 0.3813 -0.3478 -0.8565
vn 0.6967 -0.3478 -0.6273
vn 0.8917 -0.3478 -0.2897
vn 0.9324 -0.3478 0.0980
vn 0.8119 -0.3478 0.4688
vn 0.5511 -0.3478 0.7585
vn 0.1949 -0.3478 0.9171
vn -0.1949 -0.3478 0.9171
vn -0.5511 -0.3478 0.7585
vn -0.8119 -0.3478 0.4688
vn -0.9324 -0.3478 0.0980
vn -0.8917 -0.3478 -0.2897
vn -0.6967 -0.3478 -0.6273
vn -0.3813 -0.3478 -0.8565
vn -0.4067 -0.0000 -0.9135
vn -0.0000 -0.0000 -1.0000
vn -0.7431 -0.0000 -0.6691
vn -0.9511 -0.0000 -0.3090
vn -0.9945 -0.0000 0.1045
vn -0.8660 -0.0000 0.5000
vn -0.5878 -0.0000 0.8090
vn -0.2079 -0.0000 0.9781
vn 0.2079 -0.0000 0.9781
vn 0.5878 -0.0000 0.8090
vn 0.8660 -0.0000 0.5000
vn 0.9945 -0.0000 0.1045
vn 0.9511 -0.0000 -0.3090
vn 0.7431 -0.0000 -0.6691
vn 0.4067 -0.0000 -0.9135
vn -0.5978 0.3305 -0.7303
vn -0.5978 -0.3305 -0.7303
vn 0.5099 -0.3305 -0.7942
vn 0.9428 -0.3305 -0.0444
vn 0.9129 -0.3305 0.2395
vn 0.3336 -0.3305 0.8829
vn 0.0544 -0.3305 0.9422
vn -0.7366 -0.3305 0.5901
vn -0.8793 -0.3305 0.3429
vn -0.7888 -0.3305 -0.5182
vn 0.2491 -0.3305 -0.9103
vn 0.9428 0.3305 -0.0444
vn 0.5099 0.3305 -0.7942
vn 0.3336 0.3305 0.8829
vn 0.9129 0.3305 0.2395
vn -0.7366 0.3305 0.5901
vn 0.0544 0.3305 0.9422
vn -0.7888 0.3305 -0.5182
vn -0.8793 0.3305 0.3429
vn 0.2491 0.3305 -0.9103
vn 0.5658 0.7570 -0.3267
vn 0.8069 0.5892 -0.0423
vn 0.4764 0.8791 -0.0133
vn 0.6482 0.6632 -0.3742
vn -0.6279 0.5892 0.5085
vn -0.2658 0.7570 0.5969
vn 0.0423 0.5892 0.8069
vn -0.6777 0.5892 -0.4401
vn -0.6498 0.7570 -0.0683
vn -0.7543 0.5892 0.2896
vn 0.2091 0.5892 -0.7805
vn -0.1358 0.7570 -0.6391
vn -0.5085 0.5892 -0.6279
vn 0.4401 0.5892 -0.6777
vn 0.2896 0.5892 0.7543
vn 0.4856 0.7570 0.4372
vn 0.7805 0.5892 0.2091
vn -0.3044 0.6632 0.6838
vn -0.3776 0.8791 0.2908
vn 0.4633 0.8791 0.1121
vn 0.5562 0.6632 0.5008
vn 0.1599 0.8791 0.4490
vn 0.2497 0.8791 -0.4059
vn -0.3089 0.8791 -0.3630
vn -0.1556 0.6632 -0.7321
vn 0.1346 0.8791 -0.4572
vn -0.4407 0.8791 0.1816
vn -0.7444 0.6632 -0.0782
vn -0.3933 0.8791 -0.2693
vn 0.0366 0.8791 0.4752
vt 0.373048 0.242403
vt 0.487275 0.213375
vt 0.500527 0.261497
vt 0.380027 0.287225
vt 0.508816 0.312869
vt 0.385900 0.332414
vt 0.391847 0.382864
vt 0.518289 0.369357
vt 0.523305 0.422906
vt 0.393310 0.431432
vt 0.523412 0.476419
vt 0.395457 0.478598
vt 0.394504 0.530800
vt 0.523139 0.533846
vt 0.519805 0.586795
vt 0.390978 0.578444
vt 0.512373 0.638083
vt 0.387732 0.625126
vt 0.381006 0.675002
vt 0.503532 0.694350
vt 0.492852 0.744358
vt 0.372722 0.720264
vt 0.474854 0.791360
vt 0.365045 0.763334
vt 0.354731 0.808412
vt 0.457802 0.837993
vt 0.438041 0.874968
vt 0.345921 0.847441
vt 0.557493 0.421394
vt 0.559226 0.477694
vt 0.355742 0.155637
vt 0.451163 0.130764
vt 0.468796 0.165921
vt 0.364072 0.196732
vt 0.553014 0.590644
vt 0.557581 0.535769
vt 0.598349 0.538661
vt 0.591487 0.594475
vt 0.536433 0.701014
vt 0.522716 0.753214
vt 0.495349 0.153418
vt 0.517187 0.202311
vt 0.544680 0.306927
vt 0.552988 0.365104
vt 0.546568 0.644718
vt 0.532367 0.253633
vt 0.483321 0.851637
vt 0.456599 0.889956
vt 0.506290 0.804076
vt 0.470492 0.115488
vt 0.528091 0.133935
vt 0.493094 0.097473
vt 0.502804 0.083887
vt 0.547317 0.120041
vt 0.554419 0.187835
vt 0.586702 0.650584
vt 0.569662 0.243712
vt 0.576053 0.709800
vt 0.585519 0.298758
vt 0.559717 0.764030
vt 0.594215 0.360291
vt 0.543626 0.819475
vt 0.597294 0.418816
vt 0.515321 0.872239
vt 0.600971 0.477623
vt 0.480927 0.908858
vt 0.622507 0.542072
vt 0.612094 0.596830
vt 0.577968 0.179008
vt 0.609346 0.653932
vt 0.589465 0.238568
vt 0.599857 0.716502
vt 0.609015 0.293955
vt 0.579773 0.769993
vt 0.619197 0.358680
vt 0.565785 0.829047
vt 0.619000 0.417667
vt 0.534695 0.886910
vt 0.624745 0.477930
vt 0.490861 0.922654
vt 0.614479 0.780775
vt 0.610843 0.821037
vt 0.660055 0.377650
vt 0.654062 0.415971
vt 0.664018 0.454048
vt 0.546926 0.931011
vt 0.508071 0.950767
vt 0.522932 0.051686
vt 0.564179 0.077468
vt 0.655578 0.566532
vt 0.644284 0.600657
vt 0.647482 0.637242
vt 0.622374 0.188128
vt 0.624995 0.229154
vt 0.639907 0.267622
vt 0.631309 0.743526
vt 0.340512 0.201429
vt 0.356164 0.198504
vt 0.365515 0.243546
vt 0.348825 0.245918
vt 0.332335 0.158544
vt 0.348514 0.155787
vt 0.332573 0.802935
vt 0.347644 0.806605
vt 0.339063 0.847170
vt 0.323444 0.844447
vt 0.340824 0.759222
vt 0.357113 0.762188
vt 0.348484 0.715754
vt 0.364883 0.718835
vt 0.355715 0.670517
vt 0.372802 0.673513
vt 0.361352 0.622807
vt 0.379024 0.624555
vt 0.365221 0.576195
vt 0.382617 0.577779
vt 0.367879 0.529224
vt 0.385924 0.530306
vt 0.368404 0.479606
vt 0.386567 0.479230
vt 0.366959 0.432082
vt 0.384795 0.431739
vt 0.364751 0.384300
vt 0.382719 0.383390
vt 0.360308 0.335684
vt 0.377880 0.333677
vt 0.354798 0.290223
vt 0.371555 0.288290
vt 0.340932 0.247237
vt 0.346788 0.291230
vt 0.351926 0.336682
vt 0.355832 0.384939
vt 0.358804 0.432351
vt 0.359349 0.479863
vt 0.359609 0.528987
vt 0.356849 0.575543
vt 0.352914 0.622024
vt 0.347452 0.669296
vt 0.340240 0.714341
vt 0.333394 0.757978
vt 0.324878 0.801303
vt 0.316502 0.842199
vt 0.325136 0.160718
vt 0.332983 0.202903
vt 0.003782 0.231512
vt 0.007070 0.273108
vt 0.000104 0.188516
vt 0.003979 0.770065
vt 0.000104 0.810450
vt 0.007502 0.729490
vt 0.010564 0.688745
vt 0.013076 0.647780
vt 0.014996 0.606583
vt 0.016236 0.565232
vt 0.016765 0.523722
vt 0.016627 0.482021
vt 0.015849 0.440230
vt 0.014436 0.398390
vt 0.012483 0.356528
vt 0.010015 0.314766
vt 0.387279 0.223215
vt 0.463318 0.204532
vt 0.493392 0.356021
vt 0.491033 0.333218
vt 0.500967 0.516881
vt 0.502299 0.493149
vt 0.485849 0.675636
vt 0.487655 0.652961
vt 0.444816 0.819645
vt 0.451907 0.800360
vt 0.455760 0.185624
vt 0.407120 0.344155
vt 0.409032 0.364783
vt 0.415600 0.494659
vt 0.414195 0.515013
vt 0.404518 0.641610
vt 0.402892 0.662117
vt 0.378371 0.781695
vt 0.374980 0.799360
vt 0.383474 0.204870
vt 0.638206 0.786979
vt 0.649751 0.756451
vt 0.679617 0.766570
vt 0.669542 0.796307
vt 0.645929 0.191639
vt 0.648714 0.223921
vt 0.659804 0.254448
vt 0.679596 0.384223
vt 0.677634 0.414659
vt 0.683883 0.444348
vt 0.672409 0.575335
vt 0.666312 0.603166
vt 0.667132 0.631510
vt 0.633091 0.819049
vt 0.553357 0.955093
vt 0.523740 0.970151
vt 0.542257 0.031680
vt 0.573696 0.051332
vt 0.822977 0.201385
vt 0.781128 0.196986
vt 0.744687 0.175947
vt 0.719953 0.141904
vt 0.711205 0.100745
vt 0.719953 0.059585
vt 0.744687 0.025542
vt 0.781128 0.004503
vt 0.822977 0.000104
vt 0.862997 0.013108
vt 0.894267 0.041264
vt 0.911382 0.079705
vt 0.911382 0.121784
vt 0.894267 0.160225
vt 0.862996 0.188382
vt 0.662483 0.825377
vt 0.708579 0.384632
vt 0.708172 0.413490
vt 0.710996 0.440591
vt 0.568480 0.984838
vt 0.538864 0.999896
vt 0.581796 0.121367
vt 0.595229 0.152125
vt 0.561994 0.000104
vt 0.593433 0.019756
vt 0.698868 0.579483
vt 0.694738 0.605828
vt 0.636270 0.306272
vt 0.644053 0.335899
vt 0.693835 0.632416
vt 0.674909 0.187193
vt 0.680274 0.215862
vt 0.652542 0.497719
vt 0.648314 0.527489
vt 0.689376 0.245306
vt 0.582840 0.856657
vt 0.568478 0.887538
vt 0.631275 0.673713
vt 0.628977 0.702890
vt 0.680846 0.475190
vt 0.657135 0.283207
vt 0.591535 0.084743
vt 0.617892 0.847220
vt 0.659164 0.658074
vt 0.671695 0.549067
vt 0.649957 0.727855
vt 0.575488 0.925775
vt 0.629914 0.162219
vt 0.674341 0.355026
s 1
usemtl Material.001
f 136/1/1 137/2/2 2/3/3 122/4/4
f 122/4/4 2/3/3 139/5/5 147/6/6
f 148/7/7 138/8/8 5/9/9 125/10/10
f 125/10/10 5/9/9 141/11/11 149/12/12
f 150/13/13 140/14/14 8/15/15 128/16/16
f 128/16/16 8/15/15 143/17/17 151/18/18
f 152/19/19 142/20/20 11/21/21 131/22/22
f 131/22/22 11/21/21 145/23/23 153/24/24
f 154/25/25 144/26/26 14/27/27 134/28/28
f 141/11/11 5/9/9 20/29/29 21/30/30
f 134/31/28 14/32/27 146/33/31 155/34/32
f 23/35/33 22/36/34 37/37/35 38/38/36
f 11/21/21 142/20/20 25/39/37 26/40/38
f 137/2/2 146/33/31 30/41/39 17/42/40
f 138/8/8 139/5/5 18/43/41 19/44/42
f 143/17/17 8/15/15 23/35/33 24/45/43
f 2/3/3 137/2/2 17/42/40 16/46/44
f 14/27/27 144/26/26 28/47/45 29/48/46
f 140/14/14 141/11/11 21/30/30 22/36/34
f 145/23/23 11/21/21 26/40/38 27/49/47
f 5/9/9 138/8/8 19/44/42 20/29/29
f 142/20/20 143/17/17 24/45/43 25/39/37
f 146/33/31 14/32/27 29/50/46 30/41/39
f 139/5/5 2/3/3 16/46/44 18/43/41
f 8/15/15 140/14/14 22/36/34 23/35/33
f 144/26/26 145/23/23 27/49/47 28/47/45
f 45/51/48 44/52/49 59/53/50 60/54/51
f 17/42/40 30/41/39 45/51/48 32/55/52
f 24/45/43 23/35/33 38/38/36 39/56/53
f 16/46/44 17/42/40 32/55/52 31/57/54
f 25/39/37 24/45/43 39/56/53 40/58/55
f 18/43/41 16/46/44 31/57/54 33/59/56
f 26/40/38 25/39/37 40/58/55 41/60/57
f 19/44/42 18/43/41 33/59/56 34/61/58
f 27/49/47 26/40/38 41/60/57 42/62/59
f 20/29/29 19/44/42 34/61/58 35/63/60
f 28/47/45 27/49/47 42/62/59 43/64/61
f 21/30/30 20/29/29 35/63/60 36/65/62
f 29/48/46 28/47/45 43/64/61 44/66/49
f 22/36/34 21/30/30 36/65/62 37/37/35
f 30/41/39 29/50/46 44/52/49 45/51/48
f 38/38/36 37/37/35 52/67/63 53/68/64
f 32/55/52 45/51/48 60/54/51 47/69/65
f 39/56/53 38/38/36 53/68/64 54/70/66
f 31/57/54 32/55/52 47/69/65 46/71/67
f 40/58/55 39/56/53 54/70/66 55/72/68
f 33/59/56 31/57/54 46/71/67 48/73/69
f 41/60/57 40/58/55 55/72/68 56/74/70
f 34/61/58 33/59/56 48/73/69 49/75/71
f 42/62/59 41/60/57 56/74/70 57/76/72
f 35/63/60 34/61/58 49/75/71 50/77/73
f 43/64/61 42/62/59 57/76/72 58/78/74
f 36/65/62 35/63/60 50/77/73 51/79/75
f 44/66/49 43/64/61 58/78/74 59/80/50
f 37/37/35 36/65/62 51/79/75 52/67/63
f 57/76/72 56/74/70 166/81/76 167/82/77
f 50/77/73 49/75/71 159/83/78 160/84/79
f 51/79/75 50/77/73 160/84/79 161/85/80
f 59/80/50 58/78/74 168/86/81 169/87/82
f 60/54/51 59/53/50 169/88/82 170/89/83
f 53/68/64 52/67/63 162/90/84 163/91/85
f 54/70/66 53/68/64 163/91/85 164/92/86
f 46/71/67 47/69/65 157/93/87 156/94/88
f 48/73/69 46/71/67 156/94/88 158/95/89
f 56/74/70 55/72/68 165/96/90 166/81/76
f 104/97/91 90/98/92 76/99/93 105/100/94
f 103/101/95 89/102/96 90/98/92 104/97/91
f 102/103/97 88/104/98 89/105/96 103/106/95
f 101/107/99 87/108/100 88/104/98 102/103/97
f 100/109/101 86/110/102 87/108/100 101/107/99
f 99/111/103 85/112/104 86/110/102 100/109/101
f 98/113/105 84/114/106 85/112/104 99/111/103
f 97/115/107 83/116/108 84/114/106 98/113/105
f 96/117/109 82/118/110 83/116/108 97/115/107
f 95/119/111 81/120/112 82/118/110 96/117/109
f 94/121/113 80/122/114 81/120/112 95/119/111
f 93/123/115 79/124/116 80/122/114 94/121/113
f 92/125/117 78/126/118 79/124/116 93/123/115
f 91/127/119 77/128/120 78/126/118 92/125/117
f 105/100/94 76/99/93 77/128/120 91/127/119
f 120/129/121 105/100/94 91/127/119 106/130/122
f 106/130/122 91/127/119 92/125/117 107/131/123
f 107/131/123 92/125/117 93/123/115 108/132/124
f 108/132/124 93/123/115 94/121/113 109/133/125
f 109/133/125 94/121/113 95/119/111 110/134/126
f 110/134/126 95/119/111 96/117/109 111/135/127
f 111/135/127 96/117/109 97/115/107 112/136/128
f 112/136/128 97/115/107 98/113/105 113/137/129
f 113/137/129 98/113/105 99/111/103 114/138/130
f 114/138/130 99/111/103 100/109/101 115/139/131
f 115/139/131 100/109/101 101/107/99 116/140/132
f 116/140/132 101/107/99 102/103/97 117/141/133
f 117/141/133 102/103/97 103/106/95 118/142/134
f 118/143/134 103/101/95 104/97/91 119/144/135
f 119/144/135 104/97/91 105/100/94 120/129/121
f 197/145/136 119/144/135 120/129/121 198/146/137
f 196/147/138 118/143/134 119/144/135 197/145/136
f 195/148/139 117/141/133 118/142/134 196/149/138
f 194/150/140 116/140/132 117/141/133 195/148/139
f 193/151/141 115/139/131 116/140/132 194/150/140
f 192/152/142 114/138/130 115/139/131 193/151/141
f 200/153/143 113/137/129 114/138/130 192/152/142
f 191/154/144 112/136/128 113/137/129 200/153/143
f 199/155/145 111/135/127 112/136/128 191/154/144
f 190/156/146 110/134/126 111/135/127 199/155/145
f 189/157/147 109/133/125 110/134/126 190/156/146
f 188/158/148 108/132/124 109/133/125 189/157/147
f 187/159/149 107/131/123 108/132/124 188/158/148
f 186/160/150 106/130/122 107/131/123 187/159/149
f 198/146/137 120/129/121 106/130/122 186/160/150
f 90/98/92 155/34/32 136/1/1 76/99/93
f 89/102/96 134/31/28 155/34/32 90/98/92
f 88/104/98 154/25/25 134/28/28 89/105/96
f 87/108/100 153/24/24 154/25/25 88/104/98
f 86/110/102 131/22/22 153/24/24 87/108/100
f 85/112/104 152/19/19 131/22/22 86/110/102
f 84/114/106 151/18/18 152/19/19 85/112/104
f 83/116/108 128/16/16 151/18/18 84/114/106
f 82/118/110 150/13/13 128/16/16 83/116/108
f 81/120/112 149/12/12 150/13/13 82/118/110
f 80/122/114 125/10/10 149/12/12 81/120/112
f 79/124/116 148/7/7 125/10/10 80/122/114
f 78/126/118 147/6/6 148/7/7 79/124/116
f 77/128/120 122/4/4 147/6/6 78/126/118
f 76/99/93 136/1/1 122/4/4 77/128/120
f 121/161/151 1/162/152 137/2/2 136/1/1
f 4/163/153 3/164/154 139/5/5 138/8/8
f 7/165/155 6/166/156 141/11/11 140/14/14
f 10/167/157 9/168/158 143/17/17 142/20/20
f 13/169/159 12/170/160 145/23/23 144/26/26
f 1/162/152 15/171/161 146/33/31 137/2/2
f 3/164/154 123/172/162 147/6/6 139/5/5
f 124/173/163 4/163/153 138/8/8 148/7/7
f 6/166/156 126/174/164 149/12/12 141/11/11
f 127/175/165 7/165/155 140/14/14 150/13/13
f 9/168/158 129/176/166 151/18/18 143/17/17
f 130/177/167 10/167/157 142/20/20 152/19/19
f 12/170/160 132/178/168 153/24/24 145/23/23
f 133/179/169 13/169/159 144/26/26 154/25/25
f 15/171/161 135/180/170 155/34/32 146/33/31
f 135/180/170 121/161/151 136/1/1 155/34/32
f 132/178/168 133/179/169 154/25/25 153/24/24
f 129/176/166 130/177/167 152/19/19 151/18/18
f 126/174/164 127/175/165 150/13/13 149/12/12
f 123/172/162 124/173/163 148/7/7 147/6/6
f 71/181/171 70/182/172 180/183/173 181/184/174
f 62/185/175 61/186/176 156/94/88 157/93/87
f 61/186/176 63/187/177 158/95/89 156/94/88
f 64/188/178 65/189/179 160/84/79 159/83/78
f 65/189/179 66/190/180 161/85/80 160/84/79
f 67/191/181 68/192/182 163/91/85 162/90/84
f 68/192/182 69/193/183 164/92/86 163/91/85
f 70/182/172 71/181/171 166/81/76 165/96/90
f 71/181/171 72/194/184 167/82/77 166/81/76
f 73/195/185 74/196/186 169/87/82 168/86/81
f 74/197/186 75/198/187 170/89/83 169/88/82
f 171/199/188 172/200/189 185/201/190 184/202/191 183/203/192 182/204/193 181/205/174 180/206/173 179/207/194 178/208/195 177/209/196 176/210/197 175/211/198 174/212/199 173/213/200
f 72/194/184 71/181/171 181/184/174 182/214/193
f 65/189/179 64/188/178 174/215/199 175/216/198
f 66/190/180 65/189/179 175/216/198 176/217/197
f 74/196/186 73/195/185 183/218/192 184/219/191
f 60/54/51 185/220/190 172/221/189 47/69/65
f 75/198/187 74/197/186 184/222/191 185/223/190
f 68/192/182 67/191/181 177/224/196 178/225/195
f 48/73/69 173/226/200 174/227/199 49/75/71
f 69/193/183 68/192/182 178/225/195 179/228/194
f 61/186/176 62/185/175 172/229/189 171/230/188
f 51/79/75 176/231/197 177/232/196 52/67/63
f 63/187/177 61/186/176 171/230/188 173/233/200
f 57/76/72 182/234/193 183/235/192 58/78/74
f 54/70/66 179/236/194 180/237/173 55/72/68
f 161/85/80 66/238/180 176/231/197 51/79/75
f 48/73/69 158/95/89 63/239/177 173/226/200
f 60/54/51 170/89/83 75/240/187 185/220/190
f 167/82/77 72/241/184 182/234/193 57/76/72
f 164/92/86 69/242/183 179/236/194 54/70/66
f 162/90/84 52/67/63 177/232/196 67/243/181
f 55/72/68 180/237/173 70/244/172 165/96/90
f 168/86/81 58/78/74 183/235/192 73/245/185
f 157/93/87 47/69/65 172/221/189 62/246/175
f 159/83/78 49/75/71 174/227/199 64/247/178
