# 3ds Max Wavefront OBJ Exporter v0.97b - (c)2007 guruware
# File Created: 22.01.2014 11:14:55

mtllib Big Ben.mtl

#
# object Box007
#

v  -9.645669 0.000000 9.645669
v  9.645669 0.000000 9.645669
v  -9.645669 0.000000 -9.645669
v  9.645669 0.000000 -9.645669
v  -9.645669 72.457016 9.645669
v  9.645669 72.457016 9.645669
v  -9.645669 72.457016 -9.645669
v  9.645669 72.457016 -9.645669
v  -10.826772 72.441772 10.826772
v  10.826772 72.441772 10.826772
v  -10.826772 72.441772 -10.826772
v  10.826772 72.441772 -10.826772
v  -10.826772 94.882721 10.826772
v  10.826772 94.882721 10.826772
v  -10.826772 94.882721 -10.826772
v  10.826772 94.882721 -10.826772
v  -8.858268 94.891754 8.858268
v  8.858268 94.891754 8.858268
v  -8.858268 94.891754 -8.858268
v  8.858268 94.891754 -8.858268
v  -8.858268 101.498901 8.858268
v  8.858268 101.498901 8.858268
v  -8.858268 101.498901 -8.858268
v  8.858268 101.498901 -8.858268
v  -4.463429 111.387283 4.463429
v  4.463429 111.387283 4.463429
v  4.463429 111.387283 -4.463429
v  -4.463429 111.387283 -4.463429
v  -4.463429 120.765358 4.463429
v  4.463429 120.765358 4.463429
v  4.463429 120.765358 -4.463429
v  -4.463429 120.765358 -4.463429
v  -0.899762 140.834442 0.899762
v  0.899762 140.834442 0.899762
v  0.899762 140.834442 -0.899762
v  -0.899762 140.834442 -0.899762
v  -0.899762 149.837387 0.899762
v  0.899762 149.837387 0.899762
v  0.899762 149.837387 -0.899762
v  -0.899762 149.837387 -0.899762
# 40 vertices

vn 0.000000 -1.000000 -0.000000
vn 0.000000 1.000000 -0.000000
vn 0.000000 0.000000 1.000000
vn 1.000000 0.000000 -0.000000
vn 0.000000 0.000000 -1.000000
vn -1.000000 0.000000 -0.000000
vn 0.000000 0.406139 0.913811
vn 0.913811 0.406139 -0.000000
vn 0.000000 0.406139 -0.913811
vn -0.913811 0.406139 -0.000000
vn 0.000000 0.174835 0.984598
vn 0.984598 0.174835 -0.000000
vn 0.000000 0.174835 -0.984598
vn -0.984598 0.174835 -0.000000
# 14 vertex normals

vt 0.192880 0.867642 0.000000
vt 0.192880 0.836933 0.000000
vt 0.026582 0.836933 0.000000
vt 0.026582 0.867642 0.000000
vt 0.023452 0.150389 0.000000
vt 0.191444 0.150389 0.000000
vt 0.191444 0.792927 0.000000
vt 0.023452 0.792927 0.000000
vt 0.390489 0.359241 0.000000
vt 0.203302 0.359241 0.000000
vt 0.203302 0.162304 0.000000
vt 0.390489 0.162304 0.000000
vt 0.211052 0.392738 0.000000
vt 0.365178 0.392738 0.000000
vt 0.365178 0.449129 0.000000
vt 0.211052 0.449129 0.000000
vt 0.216825 0.472620 0.000000
vt 0.367217 0.472643 0.000000
vt 0.329984 0.560606 0.000000
vt 0.253921 0.560556 0.000000
vt 0.252480 0.568743 0.000000
vt 0.328053 0.568768 0.000000
vt 0.328108 0.650272 0.000000
vt 0.252501 0.650272 0.000000
vt 0.250978 0.663028 0.356291
vt 0.329164 0.663028 0.356291
vt 0.296092 0.833071 0.071823
vt 0.280303 0.833071 0.071823
vt 0.285864 0.842476 0.071823
vt 0.292355 0.842476 0.071823
vt 0.292355 0.920327 0.071823
vt 0.285864 0.920327 0.071823
# 32 texture coords

g Box007
usemtl 04___Default
s 2
f -40/-32/-14 -38/-31/-14 -37/-30/-14 -39/-29/-14 
s 4
f -36/-28/-13 -35/-27/-13 -33/-26/-13 -34/-25/-13 
s 8
f -40/-28/-12 -39/-27/-12 -35/-26/-12 -36/-25/-12 
s 16
f -39/-28/-11 -37/-27/-11 -33/-26/-11 -35/-25/-11 
s 32
f -37/-28/-10 -38/-27/-10 -34/-26/-10 -33/-25/-10 
s 64
f -38/-28/-9 -40/-27/-9 -36/-26/-9 -34/-25/-9 
s 2
f -29/-29/-14 -31/-30/-14 -32/-31/-14 -30/-32/-14 
s 4
f -25/-32/-13 -26/-29/-13 -28/-30/-13 -27/-31/-13 
s 8
f -27/-24/-12 -28/-23/-12 -32/-22/-12 -31/-21/-12 
s 16
f -25/-24/-11 -27/-23/-11 -31/-22/-11 -29/-21/-11 
s 32
f -26/-24/-10 -25/-23/-10 -29/-22/-10 -30/-21/-10 
s 64
f -28/-24/-9 -26/-23/-9 -30/-22/-9 -32/-21/-9 
s 2
f -24/-31/-14 -22/-32/-14 -21/-29/-14 -23/-30/-14 
s 4
f -4/-30/-13 -3/-31/-13 -2/-32/-13 -1/-29/-13 
s 8
f -24/-20/-12 -23/-19/-12 -19/-18/-12 -20/-17/-12 
s 16
f -23/-20/-11 -21/-19/-11 -17/-18/-11 -19/-17/-11 
s 32
f -21/-20/-10 -22/-19/-10 -18/-18/-10 -17/-17/-10 
s 64
f -22/-20/-9 -24/-19/-9 -20/-18/-9 -18/-17/-9 
s off
f -20/-16/-8 -19/-15/-8 -15/-14/-8 -16/-13/-8 
f -19/-16/-7 -17/-15/-7 -14/-14/-7 -15/-13/-7 
f -17/-16/-6 -18/-15/-6 -13/-14/-6 -14/-13/-6 
f -18/-16/-5 -20/-15/-5 -16/-14/-5 -13/-13/-5 
f -16/-12/-12 -15/-11/-12 -11/-10/-12 -12/-9/-12 
f -15/-12/-11 -14/-11/-11 -10/-10/-11 -11/-9/-11 
f -14/-12/-10 -13/-11/-10 -9/-10/-10 -10/-9/-10 
f -13/-12/-9 -16/-11/-9 -12/-10/-9 -9/-9/-9 
f -12/-8/-4 -11/-7/-4 -7/-6/-4 -8/-5/-4 
f -11/-8/-3 -10/-7/-3 -6/-6/-3 -7/-5/-3 
f -10/-8/-2 -9/-7/-2 -5/-6/-2 -6/-5/-2 
f -9/-8/-1 -12/-7/-1 -8/-6/-1 -5/-5/-1 
f -8/-4/-12 -7/-3/-12 -3/-2/-12 -4/-1/-12 
f -7/-4/-11 -6/-3/-11 -2/-2/-11 -3/-1/-11 
f -6/-4/-10 -5/-3/-10 -1/-2/-10 -2/-1/-10 
f -5/-4/-9 -8/-3/-9 -4/-2/-9 -1/-1/-9 
# 34 polygons

